<svg id="Layer_1" data-name="Layer 1" xmlns="http://www.w3.org/2000/svg" viewBox="0 0 88.71 46.4"><defs><style>.cls-1{fill:#1d1d1b;}</style></defs><title>arrow</title><path class="cls-1" d="M4,7c1.4.75,2.75,1.6,4.11,2.44A21.14,21.14,0,0,1,8.66,2.7c.42-1.74,3.07-1,2.68.73a19.28,19.28,0,0,0-.44,5.43,50.44,50.44,0,0,0,3-4.71c.49-.86,2-.29,1.63.69a30.39,30.39,0,0,1-4.08,7.29,19.52,19.52,0,0,0,2.09,5c.8-2.18,1.39-5.09,3.06-6.72a.42.42,0,0,1,.7.18c.26,1.72-.45,3.38-.93,5a30,30,0,0,1-1.1,4.08,29.2,29.2,0,0,0,3.36,3.6c1.19-1.51,1.51-4.29,2.08-5.89a.69.69,0,0,1,1.33.37c-.3,2-.73,4-1.12,6A6.45,6.45,0,0,1,20.57,25c5.21,6.06,10.66,10.42,15.21,12.06,5.93,2.14,8.9,2,14,2a36.59,36.59,0,0,0,18.3-5.64c-1.24-.56-2.47-1.16-3.68-1.81a1.42,1.42,0,0,1,.54-2.68l17.84-1.87a1.43,1.43,0,0,1,1.15,2.34,46.87,46.87,0,0,1-15.81,12.7c-1.32.64-2.06-1.18-1.42-2.11,1.2-1.75,2.31-3.56,3.45-5.36-8.72,5.63-12.37,7.43-21.37,7.43a42.35,42.35,0,0,1-21-6.36c-4-2.64-6.58-6.55-9.47-8.94-1.13.34-2.41.45-3.48.68-1.62.36-3.16.93-4.81.58a1,1,0,0,1-.23-1.77c1.57-1.15,4-1.39,6.07-1.73a30.58,30.58,0,0,1-2.65-2.94,8.5,8.5,0,0,1-2.75-.1c-1.85-.25-3.87-.46-5.29-1.74-.67-.59-.09-1.55.67-1.62a14.74,14.74,0,0,1,3.91.69,16.81,16.81,0,0,0,1.77.39,22.91,22.91,0,0,1-2.83-6.45A43.2,43.2,0,0,1,2.55,8.87C1.42,8,2.86,6.31,4,7Z"/></svg>